<svg width="20" height="20" viewBox="0 0 20 20" fill="none" xmlns="http://www.w3.org/2000/svg">
<path d="M16.5191 6.50311C18.4384 6.50311 20 5.04467 20 3.25156C20 1.45844 18.4387 0 16.5191 0C14.5997 0 13.0382 1.45844 13.0382 3.25156C13.0382 3.66467 13.1243 4.05867 13.2756 4.42267L6.26192 8.05267C5.62626 7.26267 4.61806 6.74844 3.48091 6.74844C1.56156 6.74844 0 8.20689 0 10C0 11.7931 1.56156 13.2516 3.48091 13.2516C4.61782 13.2516 5.62626 12.7373 6.26192 11.9473L13.2756 15.5773C13.1245 15.9413 13.0382 16.3353 13.0382 16.7484C13.0382 18.5416 14.5997 20 16.5191 20C18.4384 20 20 18.5416 20 16.7484C20 14.9553 18.4384 13.4969 16.5191 13.4969C15.3822 13.4969 14.374 14.0109 13.7383 14.8009L6.72463 11.1707C6.8757 10.8069 6.96182 10.4131 6.96182 10C6.96182 9.58689 6.8757 9.19311 6.72463 8.82933L13.7385 5.19911C14.374 5.98889 15.3822 6.50311 16.5191 6.50311ZM16.5191 14.3858C17.9139 14.3858 19.0484 15.4458 19.0484 16.7484C19.0484 18.0511 17.9139 19.1111 16.5191 19.1111C15.1245 19.1111 13.9898 18.0511 13.9898 16.7484C13.9898 15.4458 15.1245 14.3858 16.5191 14.3858ZM3.48091 12.3627C2.08612 12.3627 0.951588 11.3027 0.951588 10C0.951588 8.69733 2.08636 7.63733 3.48091 7.63733C4.87546 7.63733 6.01023 8.69733 6.01023 10C6.01023 11.3027 4.87546 12.3627 3.48091 12.3627ZM16.5191 0.888889C17.9139 0.888889 19.0484 1.94889 19.0484 3.25156C19.0484 4.55422 17.9136 5.61422 16.5191 5.61422C15.1245 5.61422 13.9898 4.55422 13.9898 3.25156C13.9898 1.94889 15.1245 0.888889 16.5191 0.888889Z" fill="url(#paint0_linear)"/>
<defs>
<linearGradient id="paint0_linear" x1="0.195689" y1="11.1713" x2="20.0576" y2="10.389" gradientUnits="userSpaceOnUse">
<stop offset="0.0315" stop-color="#AD2020"/>
<stop offset="1" stop-color="#D62828"/>
</linearGradient>
</defs>
</svg>
